<?xml version="1.0" encoding="UTF-8" standalone="no"?>
<!DOCTYPE svg PUBLIC "-//W3C//DTD SVG 1.1//EN"
 "http://www.w3.org/Graphics/SVG/1.1/DTD/svg11.dtd">
<!-- Generated by graphviz version 2.38.0 (20140413.2041)
 -->
<!-- Title: snakemake_dag Pages: 1 -->
<svg width="876pt" height="692pt"
 viewBox="0.00 0.00 876.00 692.00" xmlns="http://www.w3.org/2000/svg" xmlns:xlink="http://www.w3.org/1999/xlink">
<g id="graph0" class="graph" transform="scale(1 1) rotate(0) translate(4 688)">
<title>snakemake_dag</title>
<polygon fill="white" stroke="none" points="-4,4 -4,-688 872,-688 872,4 -4,4"/>
<!-- 0 -->
<g id="node1" class="node"><title>0</title>
<polygon fill="#fcf3cf" stroke="black" stroke-width="2" points="102,-324 7.10543e-15,-324 7.10543e-15,-288 102,-288 102,-324"/>
<text text-anchor="middle" x="51" y="-303.5" font-family="sans" font-size="10.00">freebayes_vcf_filter</text>
</g>
<!-- 4 -->
<g id="node4" class="node"><title>4</title>
<polygon fill="#fcf3cf" stroke="black" stroke-width="2" points="449,-36 395,-36 395,-0 449,-0 449,-36"/>
<text text-anchor="middle" x="422" y="-15.5" font-family="sans" font-size="10.00">pipeline</text>
</g>
<!-- 0&#45;&gt;4 -->
<g id="edge5" class="edge"><title>0&#45;&gt;4</title>
<path fill="none" stroke="black" stroke-width="2" d="M50.1081,-287.817C48.8751,-244.417 52.1416,-129.74 116,-72 154.975,-36.7593 311.99,-24.4576 384.703,-20.5934"/>
<polygon fill="black" stroke="black" stroke-width="2" points="384.985,-24.0837 394.796,-20.0827 384.632,-17.0926 384.985,-24.0837"/>
</g>
<!-- 1 -->
<g id="node2" class="node"><title>1</title>
<polygon fill="#fcf3cf" stroke="black" stroke-width="2" points="696,-252 642,-252 642,-216 696,-216 696,-252"/>
<text text-anchor="middle" x="669" y="-231.5" font-family="sans" font-size="10.00">mafft</text>
</g>
<!-- 13 -->
<g id="node13" class="node"><title>13</title>
<polygon fill="#fcf3cf" stroke="black" stroke-width="2" points="763.5,-180 690.5,-180 690.5,-144 763.5,-144 763.5,-180"/>
<text text-anchor="middle" x="727" y="-159.5" font-family="sans" font-size="10.00">raxml_mltree</text>
</g>
<!-- 1&#45;&gt;13 -->
<g id="edge23" class="edge"><title>1&#45;&gt;13</title>
<path fill="none" stroke="black" stroke-width="2" d="M683.337,-215.697C690.291,-207.305 698.77,-197.07 706.401,-187.861"/>
<polygon fill="black" stroke="black" stroke-width="2" points="709.143,-190.038 712.828,-180.104 703.753,-185.571 709.143,-190.038"/>
</g>
<!-- 15 -->
<g id="node15" class="node"><title>15</title>
<polygon fill="#fcf3cf" stroke="black" stroke-width="2" points="868,-180 782,-180 782,-144 868,-144 868,-180"/>
<text text-anchor="middle" x="825" y="-159.5" font-family="sans" font-size="10.00">raxml_bootstrap</text>
</g>
<!-- 1&#45;&gt;15 -->
<g id="edge24" class="edge"><title>1&#45;&gt;15</title>
<path fill="none" stroke="black" stroke-width="2" d="M696.173,-220.807C718.662,-210.716 751.137,-196.144 777.853,-184.156"/>
<polygon fill="black" stroke="black" stroke-width="2" points="779.347,-187.322 787.038,-180.034 776.481,-180.935 779.347,-187.322"/>
</g>
<!-- 2 -->
<g id="node3" class="node"><title>2</title>
<polygon fill="#fcf3cf" stroke="black" stroke-width="2" points="569.5,-468 510.5,-468 510.5,-432 569.5,-432 569.5,-468"/>
<text text-anchor="middle" x="540" y="-447.5" font-family="sans" font-size="10.00">igv_count</text>
</g>
<!-- 20 -->
<g id="node20" class="node"><title>20</title>
<polygon fill="#fcf3cf" stroke="black" stroke-width="2" points="570,-324 514,-324 514,-288 570,-288 570,-324"/>
<text text-anchor="middle" x="542" y="-303.5" font-family="sans" font-size="10.00">coverage</text>
</g>
<!-- 2&#45;&gt;20 -->
<g id="edge32" class="edge"><title>2&#45;&gt;20</title>
<path fill="none" stroke="black" stroke-width="2" d="M540.241,-431.871C540.582,-407.67 541.208,-363.211 541.614,-334.393"/>
<polygon fill="black" stroke="black" stroke-width="2" points="545.117,-334.238 541.758,-324.189 538.117,-334.139 545.117,-334.238"/>
</g>
<!-- 5 -->
<g id="node5" class="node"><title>5</title>
<polygon fill="#fcf3cf" stroke="black" stroke-width="2" points="404,-252 342,-252 342,-216 404,-216 404,-252"/>
<text text-anchor="middle" x="373" y="-231.5" font-family="sans" font-size="10.00">remapping</text>
</g>
<!-- 5&#45;&gt;4 -->
<g id="edge9" class="edge"><title>5&#45;&gt;4</title>
<path fill="none" stroke="black" stroke-width="2" d="M390.187,-215.864C411.39,-193.385 446.307,-151.644 460,-108 464.79,-92.7337 464.896,-87.2324 460,-72 456.811,-62.0801 451.004,-52.4429 444.873,-44.1672"/>
<polygon fill="black" stroke="black" stroke-width="2" points="447.418,-41.7434 438.463,-36.0811 441.933,-46.0919 447.418,-41.7434"/>
</g>
<!-- 6 -->
<g id="node6" class="node"><title>6</title>
<polygon fill="#fcf3cf" stroke="black" stroke-width="2" points="451.5,-108 392.5,-108 392.5,-72 451.5,-72 451.5,-108"/>
<text text-anchor="middle" x="422" y="-87.5" font-family="sans" font-size="10.00">barcoding</text>
</g>
<!-- 6&#45;&gt;4 -->
<g id="edge10" class="edge"><title>6&#45;&gt;4</title>
<path fill="none" stroke="black" stroke-width="2" d="M422,-71.6966C422,-63.9827 422,-54.7125 422,-46.1124"/>
<polygon fill="black" stroke="black" stroke-width="2" points="425.5,-46.1043 422,-36.1043 418.5,-46.1044 425.5,-46.1043"/>
</g>
<!-- 7 -->
<g id="node7" class="node"><title>7</title>
<polygon fill="#fcf3cf" stroke="black" stroke-width="2" points="276,-108 196,-108 196,-72 276,-72 276,-108"/>
<text text-anchor="middle" x="236" y="-87.5" font-family="sans" font-size="10.00">copy_genbank</text>
</g>
<!-- 7&#45;&gt;4 -->
<g id="edge11" class="edge"><title>7&#45;&gt;4</title>
<path fill="none" stroke="black" stroke-width="2" d="M276.359,-73.811C308.753,-61.6198 353.852,-44.6471 385.25,-32.8307"/>
<polygon fill="black" stroke="black" stroke-width="2" points="386.803,-35.986 394.929,-29.188 384.337,-29.4346 386.803,-35.986"/>
</g>
<!-- 8 -->
<g id="node8" class="node"><title>8</title>
<polygon fill="#fcf3cf" stroke="black" stroke-width="2" points="374,-108 294,-108 294,-72 374,-72 374,-108"/>
<text text-anchor="middle" x="334" y="-87.5" font-family="sans" font-size="10.00">plot_ccs_histo</text>
</g>
<!-- 8&#45;&gt;4 -->
<g id="edge12" class="edge"><title>8&#45;&gt;4</title>
<path fill="none" stroke="black" stroke-width="2" d="M355.753,-71.6966C366.836,-62.8807 380.474,-52.0321 392.49,-42.4742"/>
<polygon fill="black" stroke="black" stroke-width="2" points="394.85,-45.0687 400.497,-36.1043 390.493,-39.5905 394.85,-45.0687"/>
</g>
<!-- 9 -->
<g id="node9" class="node"><title>9</title>
<polygon fill="#fcf3cf" stroke="black" stroke-width="2" points="402,-612 348,-612 348,-576 402,-576 402,-612"/>
<text text-anchor="middle" x="375" y="-591.5" font-family="sans" font-size="10.00">mapping</text>
</g>
<!-- 12 -->
<g id="node12" class="node"><title>12</title>
<polygon fill="#fcf3cf" stroke="black" stroke-width="2" points="517,-540 435,-540 435,-504 517,-504 517,-540"/>
<text text-anchor="middle" x="476" y="-519.5" font-family="sans" font-size="10.00">mapping_index</text>
</g>
<!-- 9&#45;&gt;12 -->
<g id="edge22" class="edge"><title>9&#45;&gt;12</title>
<path fill="none" stroke="black" stroke-width="2" d="M399.707,-575.876C412.669,-566.893 428.728,-555.763 442.765,-546.034"/>
<polygon fill="black" stroke="black" stroke-width="2" points="444.972,-548.763 451.198,-540.19 440.985,-543.009 444.972,-548.763"/>
</g>
<!-- 19 -->
<g id="node19" class="node"><title>19</title>
<polygon fill="#fcf3cf" stroke="black" stroke-width="2" points="214.5,-540 155.5,-540 155.5,-504 214.5,-504 214.5,-540"/>
<text text-anchor="middle" x="185" y="-519.5" font-family="sans" font-size="10.00">freebayes</text>
</g>
<!-- 9&#45;&gt;19 -->
<g id="edge31" class="edge"><title>9&#45;&gt;19</title>
<path fill="none" stroke="black" stroke-width="2" d="M347.836,-584.304C319.081,-574.93 272.23,-559.182 224.088,-540.295"/>
<polygon fill="black" stroke="black" stroke-width="2" points="225.355,-537.032 214.769,-536.605 222.778,-543.541 225.355,-537.032"/>
</g>
<!-- 21 -->
<g id="node21" class="node"><title>21</title>
<polygon fill="#fcf3cf" stroke="black" stroke-width="2" points="416.5,-540 333.5,-540 333.5,-504 416.5,-504 416.5,-540"/>
<text text-anchor="middle" x="375" y="-519.5" font-family="sans" font-size="10.00">samtools_stats</text>
</g>
<!-- 9&#45;&gt;21 -->
<g id="edge33" class="edge"><title>9&#45;&gt;21</title>
<path fill="none" stroke="black" stroke-width="2" d="M375,-575.697C375,-567.983 375,-558.712 375,-550.112"/>
<polygon fill="black" stroke="black" stroke-width="2" points="378.5,-550.104 375,-540.104 371.5,-550.104 378.5,-550.104"/>
</g>
<!-- 27 -->
<g id="node27" class="node"><title>27</title>
<polygon fill="#fcf3cf" stroke="black" stroke-width="2" points="315.5,-540 232.5,-540 232.5,-504 315.5,-504 315.5,-540"/>
<text text-anchor="middle" x="274" y="-519.5" font-family="sans" font-size="10.00">bamtools_stats</text>
</g>
<!-- 9&#45;&gt;27 -->
<g id="edge37" class="edge"><title>9&#45;&gt;27</title>
<path fill="none" stroke="black" stroke-width="2" d="M350.293,-575.876C337.331,-566.893 321.272,-555.763 307.235,-546.034"/>
<polygon fill="black" stroke="black" stroke-width="2" points="309.015,-543.009 298.802,-540.19 305.028,-548.763 309.015,-543.009"/>
</g>
<!-- 10 -->
<g id="node10" class="node"><title>10</title>
<polygon fill="#fcf3cf" stroke="black" stroke-width="2" points="528,-252 422,-252 422,-216 528,-216 528,-252"/>
<text text-anchor="middle" x="475" y="-231.5" font-family="sans" font-size="10.00">mapping_consensus</text>
</g>
<!-- 10&#45;&gt;4 -->
<g id="edge13" class="edge"><title>10&#45;&gt;4</title>
<path fill="none" stroke="black" stroke-width="2" d="M479.371,-215.699C486.156,-185.253 496.445,-120.713 476,-72 471.36,-60.9454 463.166,-51.0368 454.54,-42.862"/>
<polygon fill="black" stroke="black" stroke-width="2" points="456.74,-40.1355 446.928,-36.1392 452.107,-45.3823 456.74,-40.1355"/>
</g>
<!-- 11 -->
<g id="node11" class="node"><title>11</title>
<polygon fill="#fcf3cf" stroke="black" stroke-width="2" points="492.5,-468 431.5,-468 431.5,-432 492.5,-432 492.5,-468"/>
<text text-anchor="middle" x="462" y="-447.5" font-family="sans" font-size="10.00">igv_bases</text>
</g>
<!-- 26 -->
<g id="node26" class="node"><title>26</title>
<polygon fill="#fcf3cf" stroke="black" stroke-width="2" points="494,-396 430,-396 430,-360 494,-360 494,-396"/>
<text text-anchor="middle" x="462" y="-375.5" font-family="sans" font-size="10.00">consensus</text>
</g>
<!-- 11&#45;&gt;26 -->
<g id="edge36" class="edge"><title>11&#45;&gt;26</title>
<path fill="none" stroke="black" stroke-width="2" d="M462,-431.697C462,-423.983 462,-414.712 462,-406.112"/>
<polygon fill="black" stroke="black" stroke-width="2" points="465.5,-406.104 462,-396.104 458.5,-406.104 465.5,-406.104"/>
</g>
<!-- 12&#45;&gt;2 -->
<g id="edge4" class="edge"><title>12&#45;&gt;2</title>
<path fill="none" stroke="black" stroke-width="2" d="M491.82,-503.697C499.57,-495.22 509.039,-484.864 517.524,-475.583"/>
<polygon fill="black" stroke="black" stroke-width="2" points="520.197,-477.846 524.362,-468.104 515.031,-473.123 520.197,-477.846"/>
</g>
<!-- 12&#45;&gt;11 -->
<g id="edge21" class="edge"><title>12&#45;&gt;11</title>
<path fill="none" stroke="black" stroke-width="2" d="M472.539,-503.697C470.997,-495.983 469.142,-486.712 467.422,-478.112"/>
<polygon fill="black" stroke="black" stroke-width="2" points="470.814,-477.224 465.421,-468.104 463.95,-478.597 470.814,-477.224"/>
</g>
<!-- 28 -->
<g id="node28" class="node"><title>28</title>
<polygon fill="#fcf3cf" stroke="black" stroke-width="2" points="804,-108 750,-108 750,-72 804,-72 804,-108"/>
<text text-anchor="middle" x="777" y="-87.5" font-family="sans" font-size="10.00">itol</text>
</g>
<!-- 13&#45;&gt;28 -->
<g id="edge38" class="edge"><title>13&#45;&gt;28</title>
<path fill="none" stroke="black" stroke-width="2" d="M739.36,-143.697C745.233,-135.474 752.369,-125.483 758.842,-116.421"/>
<polygon fill="black" stroke="black" stroke-width="2" points="761.818,-118.276 764.783,-108.104 756.122,-114.207 761.818,-118.276"/>
</g>
<!-- 14 -->
<g id="node14" class="node"><title>14</title>
<polygon fill="#fcf3cf" stroke="black" stroke-width="2" points="672,-180 584,-180 584,-144 672,-144 672,-180"/>
<text text-anchor="middle" x="628" y="-159.5" font-family="sans" font-size="10.00">sequana_kraken</text>
</g>
<!-- 24 -->
<g id="node24" class="node"><title>24</title>
<polygon fill="#fcf3cf" stroke="black" stroke-width="2" points="731.5,-108 584.5,-108 584.5,-72 731.5,-72 731.5,-108"/>
<text text-anchor="middle" x="658" y="-87.5" font-family="sans" font-size="10.00">create_proportion_plot_kraken</text>
</g>
<!-- 14&#45;&gt;24 -->
<g id="edge34" class="edge"><title>14&#45;&gt;24</title>
<path fill="none" stroke="black" stroke-width="2" d="M635.416,-143.697C638.794,-135.813 642.87,-126.304 646.623,-117.546"/>
<polygon fill="black" stroke="black" stroke-width="2" points="649.947,-118.675 650.67,-108.104 643.513,-115.917 649.947,-118.675"/>
</g>
<!-- 15&#45;&gt;28 -->
<g id="edge39" class="edge"><title>15&#45;&gt;28</title>
<path fill="none" stroke="black" stroke-width="2" d="M813.135,-143.697C807.497,-135.474 800.646,-125.483 794.431,-116.421"/>
<polygon fill="black" stroke="black" stroke-width="2" points="797.271,-114.372 788.729,-108.104 791.497,-118.331 797.271,-114.372"/>
</g>
<!-- 16 -->
<g id="node16" class="node"><title>16</title>
<polygon fill="#fcf3cf" stroke="black" stroke-width="2" points="212,-468 158,-468 158,-432 212,-432 212,-468"/>
<text text-anchor="middle" x="185" y="-447.5" font-family="sans" font-size="10.00">snpeff</text>
</g>
<!-- 16&#45;&gt;0 -->
<g id="edge1" class="edge"><title>16&#45;&gt;0</title>
<path fill="none" stroke="black" stroke-width="2" d="M168.836,-431.871C145.294,-406.924 101.438,-360.45 74.3773,-331.773"/>
<polygon fill="black" stroke="black" stroke-width="2" points="76.6297,-329.06 67.2209,-324.189 71.5386,-333.864 76.6297,-329.06"/>
</g>
<!-- 18 -->
<g id="node18" class="node"><title>18</title>
<polygon fill="#fcf3cf" stroke="black" stroke-width="2" points="281,-396 227,-396 227,-360 281,-360 281,-396"/>
<text text-anchor="middle" x="254" y="-375.5" font-family="sans" font-size="10.00">multiqc</text>
</g>
<!-- 16&#45;&gt;18 -->
<g id="edge26" class="edge"><title>16&#45;&gt;18</title>
<path fill="none" stroke="black" stroke-width="2" d="M202.056,-431.697C210.495,-423.135 220.825,-412.656 230.043,-403.304"/>
<polygon fill="black" stroke="black" stroke-width="2" points="232.613,-405.683 237.14,-396.104 227.627,-400.769 232.613,-405.683"/>
</g>
<!-- 17 -->
<g id="node17" class="node"><title>17</title>
<polygon fill="#fcf3cf" stroke="black" stroke-width="2" points="343.5,-180 266.5,-180 266.5,-144 343.5,-144 343.5,-180"/>
<text text-anchor="middle" x="305" y="-159.5" font-family="sans" font-size="10.00">copy_smrtlink</text>
</g>
<!-- 17&#45;&gt;4 -->
<g id="edge6" class="edge"><title>17&#45;&gt;4</title>
<path fill="none" stroke="black" stroke-width="2" d="M266.235,-154.828C238.978,-148.246 204.386,-134.868 187,-108 178.308,-94.567 177.008,-84.4964 187,-72 211.331,-41.5702 324.72,-27.3605 384.649,-21.8792"/>
<polygon fill="black" stroke="black" stroke-width="2" points="385.179,-25.3462 394.834,-20.9847 384.566,-18.3731 385.179,-25.3462"/>
</g>
<!-- 17&#45;&gt;6 -->
<g id="edge17" class="edge"><title>17&#45;&gt;6</title>
<path fill="none" stroke="black" stroke-width="2" d="M333.621,-143.876C348.919,-134.724 367.943,-123.342 384.418,-113.485"/>
<polygon fill="black" stroke="black" stroke-width="2" points="386.484,-116.327 393.269,-108.19 382.89,-110.32 386.484,-116.327"/>
</g>
<!-- 18&#45;&gt;4 -->
<g id="edge7" class="edge"><title>18&#45;&gt;4</title>
<path fill="none" stroke="black" stroke-width="2" d="M226.788,-361.9C190.286,-339.41 130,-293.422 130,-235 130,-235 130,-235 130,-161 130,-116.473 140.634,-99.0524 176,-72 208.326,-47.2733 323.899,-30.4654 384.424,-23.147"/>
<polygon fill="black" stroke="black" stroke-width="2" points="385.182,-26.582 394.701,-21.9318 384.359,-19.6304 385.182,-26.582"/>
</g>
<!-- 19&#45;&gt;16 -->
<g id="edge25" class="edge"><title>19&#45;&gt;16</title>
<path fill="none" stroke="black" stroke-width="2" d="M185,-503.697C185,-495.983 185,-486.712 185,-478.112"/>
<polygon fill="black" stroke="black" stroke-width="2" points="188.5,-478.104 185,-468.104 181.5,-478.104 188.5,-478.104"/>
</g>
<!-- 20&#45;&gt;4 -->
<g id="edge8" class="edge"><title>20&#45;&gt;4</title>
<path fill="none" stroke="black" stroke-width="2" d="M542.99,-287.983C544.518,-246.875 543.216,-140.503 495,-72 485.387,-58.3422 471.115,-46.8663 457.735,-38.1243"/>
<polygon fill="black" stroke="black" stroke-width="2" points="459.47,-35.0818 449.128,-32.779 455.776,-41.0283 459.47,-35.0818"/>
</g>
<!-- 21&#45;&gt;18 -->
<g id="edge29" class="edge"><title>21&#45;&gt;18</title>
<path fill="none" stroke="black" stroke-width="2" d="M350.956,-503.944C338.241,-494.251 322.854,-481.397 311,-468 293.837,-448.604 278.272,-423.539 267.76,-404.954"/>
<polygon fill="black" stroke="black" stroke-width="2" points="270.789,-403.199 262.882,-396.148 264.666,-406.591 270.789,-403.199"/>
</g>
<!-- 22 -->
<g id="node22" class="node"><title>22</title>
<polygon fill="#fcf3cf" stroke="black" stroke-width="2" points="385.5,-468 320.5,-468 320.5,-432 385.5,-432 385.5,-468"/>
<text text-anchor="middle" x="353" y="-447.5" font-family="sans" font-size="10.00">fastq_stats</text>
</g>
<!-- 22&#45;&gt;18 -->
<g id="edge27" class="edge"><title>22&#45;&gt;18</title>
<path fill="none" stroke="black" stroke-width="2" d="M328.782,-431.876C316.077,-422.893 300.336,-411.763 286.577,-402.034"/>
<polygon fill="black" stroke="black" stroke-width="2" points="288.497,-399.105 278.311,-396.19 284.456,-404.821 288.497,-399.105"/>
</g>
<!-- 23 -->
<g id="node23" class="node"><title>23</title>
<polygon fill="#fcf3cf" stroke="black" stroke-width="2" points="552.5,-684 419.5,-684 419.5,-648 552.5,-648 552.5,-684"/>
<text text-anchor="middle" x="486" y="-663.5" font-family="sans" font-size="10.00">snpeff_add_locus_in_fasta</text>
</g>
<!-- 23&#45;&gt;1 -->
<g id="edge2" class="edge"><title>23&#45;&gt;1</title>
<path fill="none" stroke="black" stroke-width="2" d="M533.569,-647.841C582.622,-626.725 652,-585.766 652,-523 652,-523 652,-523 652,-377 652,-336.931 658.756,-290.949 663.75,-262.433"/>
<polygon fill="black" stroke="black" stroke-width="2" points="667.227,-262.871 665.56,-252.408 660.339,-261.627 667.227,-262.871"/>
</g>
<!-- 23&#45;&gt;9 -->
<g id="edge18" class="edge"><title>23&#45;&gt;9</title>
<path fill="none" stroke="black" stroke-width="2" d="M458.846,-647.876C444.467,-638.808 426.619,-627.552 411.09,-617.759"/>
<polygon fill="black" stroke="black" stroke-width="2" points="412.584,-614.564 402.258,-612.19 408.85,-620.484 412.584,-614.564"/>
</g>
<!-- 23&#45;&gt;10 -->
<g id="edge19" class="edge"><title>23&#45;&gt;10</title>
<path fill="none" stroke="black" stroke-width="2" d="M512.542,-647.851C545.662,-624.128 598,-577.947 598,-523 598,-523 598,-523 598,-377 598,-336.553 603.636,-320.079 579,-288 568.321,-274.094 552.981,-263.534 537.351,-255.647"/>
<polygon fill="black" stroke="black" stroke-width="2" points="538.685,-252.406 528.147,-251.306 535.699,-258.737 538.685,-252.406"/>
</g>
<!-- 23&#45;&gt;19 -->
<g id="edge30" class="edge"><title>23&#45;&gt;19</title>
<path fill="none" stroke="black" stroke-width="2" d="M431.659,-647.987C403.522,-638.535 368.891,-625.891 339,-612 296.563,-592.278 250.404,-564.719 219.8,-545.511"/>
<polygon fill="black" stroke="black" stroke-width="2" points="221.534,-542.467 211.211,-540.083 217.794,-548.384 221.534,-542.467"/>
</g>
<!-- 24&#45;&gt;4 -->
<g id="edge14" class="edge"><title>24&#45;&gt;4</title>
<path fill="none" stroke="black" stroke-width="2" d="M600.57,-71.9656C556.358,-58.8519 496.581,-41.1216 458.651,-29.8712"/>
<polygon fill="black" stroke="black" stroke-width="2" points="459.616,-26.5065 449.033,-27.0183 457.625,-33.2175 459.616,-26.5065"/>
</g>
<!-- 25 -->
<g id="node25" class="node"><title>25</title>
<polygon fill="#fcf3cf" stroke="black" stroke-width="2" points="496,-324 432,-324 432,-288 496,-288 496,-324"/>
<text text-anchor="middle" x="464" y="-303.5" font-family="sans" font-size="10.00">build_fasta</text>
</g>
<!-- 25&#45;&gt;1 -->
<g id="edge3" class="edge"><title>25&#45;&gt;1</title>
<path fill="none" stroke="black" stroke-width="2" d="M496.132,-291.39C499.118,-290.212 502.108,-289.065 505,-288 548.132,-272.118 598.55,-256.213 631.98,-246.031"/>
<polygon fill="black" stroke="black" stroke-width="2" points="633.227,-249.31 641.783,-243.061 631.198,-242.611 633.227,-249.31"/>
</g>
<!-- 25&#45;&gt;10 -->
<g id="edge20" class="edge"><title>25&#45;&gt;10</title>
<path fill="none" stroke="black" stroke-width="2" d="M466.719,-287.697C467.931,-279.983 469.388,-270.712 470.739,-262.112"/>
<polygon fill="black" stroke="black" stroke-width="2" points="474.217,-262.526 472.312,-252.104 467.302,-261.44 474.217,-262.526"/>
</g>
<!-- 26&#45;&gt;5 -->
<g id="edge16" class="edge"><title>26&#45;&gt;5</title>
<path fill="none" stroke="black" stroke-width="2" d="M448.447,-359.715C440.679,-349.536 430.929,-336.286 423,-324 409.783,-303.52 396.336,-279.358 386.721,-261.381"/>
<polygon fill="black" stroke="black" stroke-width="2" points="389.574,-259.291 381.8,-252.093 383.389,-262.568 389.574,-259.291"/>
</g>
<!-- 26&#45;&gt;25 -->
<g id="edge35" class="edge"><title>26&#45;&gt;25</title>
<path fill="none" stroke="black" stroke-width="2" d="M462.494,-359.697C462.715,-351.983 462.98,-342.712 463.225,-334.112"/>
<polygon fill="black" stroke="black" stroke-width="2" points="466.724,-334.2 463.511,-324.104 459.727,-334 466.724,-334.2"/>
</g>
<!-- 27&#45;&gt;18 -->
<g id="edge28" class="edge"><title>27&#45;&gt;18</title>
<path fill="none" stroke="black" stroke-width="2" d="M271.588,-503.871C268.179,-479.67 261.917,-435.211 257.858,-406.393"/>
<polygon fill="black" stroke="black" stroke-width="2" points="261.282,-405.603 256.421,-396.189 254.35,-406.58 261.282,-405.603"/>
</g>
<!-- 28&#45;&gt;4 -->
<g id="edge15" class="edge"><title>28&#45;&gt;4</title>
<path fill="none" stroke="black" stroke-width="2" d="M749.839,-75.5414C746.572,-74.2162 743.244,-72.996 740,-72 641.324,-41.7005 519.781,-27.5505 459.532,-22.0067"/>
<polygon fill="black" stroke="black" stroke-width="2" points="459.632,-18.5019 449.361,-21.0996 459.01,-25.4742 459.632,-18.5019"/>
</g>
</g>
</svg>
